<svg width="51" height="37" viewBox="0 0 51 37" fill="none" xmlns="http://www.w3.org/2000/svg">
<g filter="url(#filter0_d_2001_26)">
<path d="M37.4689 11.2766L36.5088 9.25791L34.8064 5.67817C33.345 2.60561 29.8591 0.620697 25.924 0.620697H15.076C11.1418 0.620697 7.65504 2.60561 6.19356 5.67817L4.49121 9.25791L3.53113 11.2766C1.47087 11.9354 0 13.5991 0 15.5632V19.0115C0 20.1695 0.526167 21.2148 1.36667 22.0237V25.9081C1.36667 27.1775 2.59069 28.2069 4.1 28.2069H6.83333C8.34265 28.2069 9.56667 27.1775 9.56667 25.9081V23.6092H31.4333V25.9081C31.4333 27.1775 32.6574 28.2069 34.1667 28.2069H36.9C38.4093 28.2069 39.6333 27.1775 39.6333 25.9081V22.0237C40.4738 21.2155 41 20.1703 41 19.0115V15.5632C41 13.5991 39.5291 11.9354 37.4689 11.2766ZM11.269 7.38578C11.8917 6.07688 13.3993 5.2184 15.076 5.2184H25.924C27.6007 5.2184 29.1083 6.07688 29.731 7.38578L31.4333 10.9655H9.56667L11.269 7.38578ZM6.83333 18.9971C5.19333 18.9971 4.1 18.0805 4.1 16.7055C4.1 15.3305 5.19333 14.4138 6.83333 14.4138C8.47333 14.4138 10.9333 16.4763 10.9333 17.8513C10.9333 19.2263 8.47333 18.9971 6.83333 18.9971ZM34.1667 18.9971C32.5267 18.9971 30.0667 19.2263 30.0667 17.8513C30.0667 16.4763 32.5267 14.4138 34.1667 14.4138C35.8067 14.4138 36.9 15.3305 36.9 16.7055C36.9 18.0805 35.8067 18.9971 34.1667 18.9971Z" fill="#715E5E" fill-opacity="0.7" shape-rendering="crispEdges"/>
</g>
<defs>
<filter id="filter0_d_2001_26" x="0" y="0.620697" width="51" height="35.5862" filterUnits="userSpaceOnUse" color-interpolation-filters="sRGB">
<feFlood flood-opacity="0" result="BackgroundImageFix"/>
<feColorMatrix in="SourceAlpha" type="matrix" values="0 0 0 0 0 0 0 0 0 0 0 0 0 0 0 0 0 0 127 0" result="hardAlpha"/>
<feOffset dx="6" dy="4"/>
<feGaussianBlur stdDeviation="2"/>
<feComposite in2="hardAlpha" operator="out"/>
<feColorMatrix type="matrix" values="0 0 0 0 0 0 0 0 0 0 0 0 0 0 0 0 0 0 0.25 0"/>
<feBlend mode="normal" in2="BackgroundImageFix" result="effect1_dropShadow_2001_26"/>
<feBlend mode="normal" in="SourceGraphic" in2="effect1_dropShadow_2001_26" result="shape"/>
</filter>
</defs>
</svg>
