<svg width="55" height="56" viewBox="0 0 55 56" fill="none" xmlns="http://www.w3.org/2000/svg">
<path d="M27.5121 14.0742C19.8106 14.0742 13.5984 20.2863 13.5984 27.9879C13.5984 35.6895 19.8106 41.9016 27.5121 41.9016C35.2137 41.9016 41.4258 35.6895 41.4258 27.9879C41.4258 20.2863 35.2137 14.0742 27.5121 14.0742ZM27.5121 37.0336C22.5352 37.0336 18.4664 32.977 18.4664 27.9879C18.4664 22.9988 22.5231 18.9422 27.5121 18.9422C32.5012 18.9422 36.5578 22.9988 36.5578 27.9879C36.5578 32.977 32.4891 37.0336 27.5121 37.0336ZM45.2402 13.5051C45.2402 15.3094 43.7871 16.7504 41.9949 16.7504C40.1906 16.7504 38.7496 15.2973 38.7496 13.5051C38.7496 11.7129 40.2027 10.2598 41.9949 10.2598C43.7871 10.2598 45.2402 11.7129 45.2402 13.5051ZM54.4555 16.7988C54.2496 12.4516 53.2566 8.60079 50.0719 5.42814C46.8992 2.25548 43.0484 1.26251 38.7012 1.04454C34.2207 0.790247 20.7914 0.790247 16.3109 1.04454C11.9758 1.2504 8.125 2.24337 4.94024 5.41603C1.75547 8.58868 0.774612 12.4395 0.556644 16.7867C0.302347 21.2672 0.302347 34.6965 0.556644 39.177C0.762503 43.5242 1.75547 47.375 4.94024 50.5477C8.125 53.7203 11.9637 54.7133 16.3109 54.9313C20.7914 55.1856 34.2207 55.1856 38.7012 54.9313C43.0484 54.7254 46.8992 53.7324 50.0719 50.5477C53.2445 47.375 54.2375 43.5242 54.4555 39.177C54.7098 34.6965 54.7098 21.2793 54.4555 16.7988ZM48.6672 43.9844C47.7227 46.3578 45.8941 48.1863 43.5086 49.143C39.9363 50.5598 31.4598 50.2328 27.5121 50.2328C23.5645 50.2328 15.0758 50.5477 11.5156 49.143C9.14219 48.1985 7.31368 46.3699 6.35703 43.9844C4.94024 40.4121 5.26719 31.9356 5.26719 27.9879C5.26719 24.0402 4.95235 15.5516 6.35703 11.9914C7.30157 9.61798 9.13008 7.78947 11.5156 6.83282C15.0879 5.41603 23.5645 5.74298 27.5121 5.74298C31.4598 5.74298 39.9484 5.42814 43.5086 6.83282C45.882 7.77736 47.7105 9.60587 48.6672 11.9914C50.084 15.5637 49.757 24.0402 49.757 27.9879C49.757 31.9356 50.084 40.4242 48.6672 43.9844Z" fill="#D18787"/>
</svg>
