<svg width="35" height="34" viewBox="0 0 35 34" fill="none" xmlns="http://www.w3.org/2000/svg">
<path d="M34.3369 12.6703C34.6035 12.4645 35 12.657 35 12.9824V26.5625C35 28.3223 33.5303 29.75 31.7188 29.75H3.28125C1.46973 29.75 0 28.3223 0 26.5625V12.9891C0 12.657 0.389648 12.4711 0.663086 12.677C2.19434 13.8324 4.22461 15.3 11.1973 20.2207C12.6396 21.2434 15.0732 23.3949 17.5 23.3816C19.9404 23.4016 22.4219 21.2035 23.8096 20.2207C30.7822 15.3 32.8057 13.8258 34.3369 12.6703ZM17.5 21.25C19.0859 21.2766 21.3691 19.3109 22.5176 18.5008C31.5889 12.1059 32.2793 11.548 34.3711 9.9543C34.7676 9.65547 35 9.19063 35 8.69922V7.4375C35 5.67773 33.5303 4.25 31.7188 4.25H3.28125C1.46973 4.25 0 5.67773 0 7.4375V8.69922C0 9.19063 0.232422 9.64883 0.628906 9.9543C2.7207 11.5414 3.41113 12.1059 12.4824 18.5008C13.6309 19.3109 15.9141 21.2766 17.5 21.25Z" fill="#D18787"/>
</svg>
