<svg width="55" height="55" viewBox="0 0 55 55" fill="none" xmlns="http://www.w3.org/2000/svg">
<path d="M12.5183 54.25H1.27109V18.0309H12.5183V54.25ZM6.88863 13.0902C3.29215 13.0902 0.375 10.1113 0.375 6.51485C0.375 4.78733 1.06126 3.13056 2.2828 1.90902C3.50434 0.687476 5.16111 0.0012207 6.88863 0.0012207C8.61616 0.0012207 10.2729 0.687476 11.4945 1.90902C12.716 3.13056 13.4023 4.78733 13.4023 6.51485C13.4023 10.1113 10.4839 13.0902 6.88863 13.0902ZM54.6129 54.25H43.3899V36.6188C43.3899 32.4168 43.3052 27.0281 37.5423 27.0281C31.6947 27.0281 30.7986 31.5934 30.7986 36.316V54.25H19.5635V18.0309H30.3505V22.9715H30.508C32.0095 20.1258 35.6775 17.1227 41.1497 17.1227C52.5325 17.1227 54.625 24.6184 54.625 34.3543V54.25H54.6129Z" fill="#D18787"/>
</svg>
