<svg width="53" height="45" viewBox="0 0 53 45" fill="none" xmlns="http://www.w3.org/2000/svg">
<g filter="url(#filter0_d_2001_36)">
<path d="M39.4256 21.775L42.9547 6.74376C43.2095 5.65847 42.3573 4.625 41.2076 4.625H11.8853L11.2011 1.38678C11.0305 0.579643 10.2969 0 9.44574 0H1.79167C0.802144 0 0 0.776494 0 1.73438V2.89062C0 3.84851 0.802144 4.625 1.79167 4.625H7.00863L12.2528 29.4435C10.9982 30.142 10.1528 31.4516 10.1528 32.9531C10.1528 35.1882 12.0245 37 14.3333 37C16.6422 37 18.5139 35.1882 18.5139 32.9531C18.5139 31.8204 18.0326 30.7971 17.2579 30.0625H32.9087C32.1341 30.7971 31.6528 31.8204 31.6528 32.9531C31.6528 35.1882 33.5245 37 35.8333 37C38.1422 37 40.0139 35.1882 40.0139 32.9531C40.0139 31.3509 39.0518 29.9662 37.6564 29.3106L38.0683 27.5563C38.3231 26.471 37.4709 25.4375 36.3212 25.4375H16.283L15.7944 23.125H37.6785C38.5151 23.125 39.2403 22.5647 39.4256 21.775Z" fill="#715E5E" fill-opacity="0.7" shape-rendering="crispEdges"/>
</g>
<defs>
<filter id="filter0_d_2001_36" x="0" y="0" width="53" height="45" filterUnits="userSpaceOnUse" color-interpolation-filters="sRGB">
<feFlood flood-opacity="0" result="BackgroundImageFix"/>
<feColorMatrix in="SourceAlpha" type="matrix" values="0 0 0 0 0 0 0 0 0 0 0 0 0 0 0 0 0 0 127 0" result="hardAlpha"/>
<feOffset dx="6" dy="4"/>
<feGaussianBlur stdDeviation="2"/>
<feComposite in2="hardAlpha" operator="out"/>
<feColorMatrix type="matrix" values="0 0 0 0 0 0 0 0 0 0 0 0 0 0 0 0 0 0 0.25 0"/>
<feBlend mode="normal" in2="BackgroundImageFix" result="effect1_dropShadow_2001_36"/>
<feBlend mode="normal" in="SourceGraphic" in2="effect1_dropShadow_2001_36" result="shape"/>
</filter>
</defs>
</svg>
